PathFileType	4	(X/Y/Z)	D:\TRACE\spot_10-12-23\spot_body_motion_2_2-platform.trc
DataRate	CameraRate	NumFrames	NumMarkers	Units	OrigDataRate	OrigDataStartFrame	OrigNumFrames
100.00	100.00	      61	5	mm	100.00	876	      7000
Frame#	Time	Left_Front			Right_Front			Left_Aft			Right_Aft			Post			
		X1	Y1	Z1	X2	Y2	Z2	X3	Y3	Z3	X4	Y4	Z4	X5	Y5	Z5	

876	8.750	-805.97638	12.26343	-640.05573	766.67255	16.47503	-633.24896	-722.84949	1.54366	497.66840	693.85431	4.40851	583.66516	-23.10381	752.40784	-951.81409	
877	8.760	-806.98560	10.89290	-640.38062	765.60150	14.89522	-633.76660	-723.91840	2.47009	497.37421	692.77161	5.70967	583.31378	-23.86298	750.39752	-953.58020	
878	8.770	-807.89563	9.44112	-640.91907	764.81970	13.82147	-634.09052	-724.89716	3.39943	497.01797	692.76263	7.67212	583.07947	-24.96049	748.26093	-955.43939	
879	8.780	-808.97247	8.13132	-641.13568	763.62164	12.30304	-634.32166	-725.87030	4.41592	496.82617	691.39215	8.86980	582.67163	-26.26780	746.22681	-957.61377	
880	8.790	-809.93439	6.63893	-641.39868	762.46338	11.00412	-634.57977	-726.87427	5.29953	496.66873	690.58411	9.88780	582.41199	-27.28703	743.96661	-959.52240	
881	8.800	-811.05756	5.12927	-641.83350	761.70319	9.39172	-635.19421	-727.96417	6.27865	495.94150	689.46704	11.08535	581.98065	-27.92829	741.88086	-961.43878	
882	8.810	-812.29999	4.04370	-642.27008	760.51514	7.91039	-635.33289	-729.07147	7.22578	495.53412	688.49304	12.24175	581.61078	-28.82661	739.88617	-963.39600	
883	8.820	-813.00195	2.38047	-642.54089	759.50146	6.76175	-635.77997	-729.97992	8.25933	495.26489	687.63989	13.51770	581.39526	-29.85234	737.79980	-965.33514	
884	8.830	-813.84796	0.91486	-642.77734	758.75281	5.22357	-635.94165	-730.97638	9.41622	494.96735	686.39703	14.48824	580.88965	-30.94483	735.76758	-967.31940	
885	8.840	-815.28088	-0.22020	-643.04108	757.85779	3.81137	-636.33154	-731.87573	10.26094	494.56531	685.65186	15.58373	580.70294	-32.03661	733.71100	-968.93805	
886	8.850	-815.92993	-1.71340	-643.57190	756.51538	2.45009	-636.71857	-732.83466	11.17838	494.25739	684.68829	16.80448	580.37103	-32.79782	731.53357	-970.96326	
887	8.860	-816.85626	-3.12584	-643.73938	755.92786	1.06392	-636.86737	-733.77551	12.08442	493.80554	683.58740	17.81003	579.97882	-33.91627	729.35388	-972.83521	
888	8.870	-817.29608	-4.75628	-644.32404	755.05786	-0.48167	-637.39795	-734.65051	13.13283	493.58182	683.06531	19.16101	579.74066	-34.48878	727.20599	-974.50983	
889	8.880	-818.38245	-6.21815	-644.40411	754.36609	-1.60482	-637.52252	-735.39441	13.99646	493.41049	682.08026	20.05539	579.29309	-35.57753	725.34814	-976.37567	
890	8.890	-819.40979	-7.31379	-644.70239	753.22388	-3.29076	-637.71729	-736.36987	15.01305	492.80350	681.05096	21.28493	578.84924	-36.42464	723.16492	-978.14337	
891	8.900	-820.56799	-8.52850	-644.99127	752.42334	-4.50496	-638.31116	-737.05176	15.82469	492.43890	680.37628	22.34646	578.51581	-36.90439	721.27673	-979.75647	
892	8.910	-821.13525	-10.34024	-645.35101	751.60223	-5.81202	-638.55365	-738.11047	16.99860	492.13110	679.32635	23.47928	578.17017	-38.04855	719.21698	-981.50616	
893	8.920	-821.81598	-11.56460	-645.57068	750.71692	-7.26763	-638.69165	-738.74249	17.72684	491.85962	678.72449	24.54969	577.85486	-38.78099	717.06641	-983.50873	
894	8.930	-822.66815	-12.73682	-645.84674	750.03821	-8.76227	-639.23291	-739.69342	18.81332	491.48920	678.07953	25.49685	577.52271	-39.55678	715.14764	-985.05078	
895	8.940	-823.23474	-14.50386	-646.08691	749.29333	-10.14059	-639.18188	-740.32751	19.44858	491.15735	677.04187	26.70813	577.14130	-40.23367	712.98578	-987.00311	
896	8.950	-823.78986	-15.84344	-646.55719	748.64685	-11.16919	-639.51495	-741.17450	20.43189	490.70746	676.22430	27.62120	576.73859	-41.05079	710.95154	-988.65552	
897	8.960	-825.05566	-16.70869	-646.73346	747.61749	-12.45256	-640.10950	-741.71497	21.33935	490.65030	675.84283	28.79108	576.43781	-41.56806	708.92902	-990.38318	
898	8.970	-825.50952	-18.08483	-647.03503	746.93744	-13.74973	-640.18372	-742.33392	22.21281	490.26306	675.09851	29.87331	576.11017	-42.50047	707.07465	-992.12726	
899	8.980	-826.05206	-19.40709	-647.19421	746.27667	-15.26553	-640.55396	-743.12469	23.10148	489.98520	674.33453	30.79936	575.66003	-42.87368	705.02673	-993.58203	
900	8.990	-826.76233	-20.60378	-647.45935	746.07727	-16.28300	-640.61664	-743.57715	23.87319	489.43790	673.82452	31.81631	575.52667	-43.55542	703.01788	-995.47699	
901	9.000	-827.31543	-22.17498	-647.65894	745.37909	-17.58169	-640.67218	-744.12402	24.91594	489.00717	673.35291	32.83188	575.25305	-44.18555	701.05884	-996.88263	
902	9.010	-827.92175	-23.05009	-647.99683	744.82330	-19.06252	-641.07971	-744.79327	25.74578	488.77182	672.65192	33.89974	574.78491	-44.69331	699.17322	-998.63049	
903	9.020	-828.16455	-24.60209	-648.18994	744.36273	-19.99606	-641.35425	-745.27856	26.35480	488.49292	672.07166	34.79095	574.38312	-44.97676	697.53857	-999.84290	
904	9.030	-828.89471	-25.59549	-648.46729	743.79517	-21.42542	-641.70190	-745.90784	27.29381	488.08749	671.60529	35.68987	573.96460	-45.50690	695.61053	-1001.74469	
905	9.040	-829.30914	-26.87869	-648.73175	743.23505	-22.41305	-641.83405	-746.33246	27.89803	487.88083	671.21246	36.66829	573.79419	-46.17539	693.84564	-1002.92908	
906	9.050	-829.71051	-27.99331	-649.04535	742.70300	-23.75811	-642.28894	-746.68719	28.84556	487.49698	670.81738	37.63293	573.44879	-46.52872	692.02063	-1004.62463	
907	9.060	-830.03955	-29.18651	-649.16797	742.64868	-24.84172	-642.28748	-746.96375	29.70195	487.48080	670.33630	38.51493	573.10986	-46.80061	690.19629	-1005.91016	
908	9.070	-830.36603	-30.25689	-649.48767	742.32715	-26.11352	-642.64056	-747.28027	30.32650	487.11981	670.23621	39.29027	572.84729	-47.31363	688.28058	-1007.43646	
909	9.080	-830.52045	-31.59909	-649.58356	741.89417	-27.10267	-642.72156	-747.61261	31.00030	486.81989	669.90894	40.43864	572.53412	-47.46564	686.70282	-1008.73041	
910	9.090	-830.86401	-32.44501	-649.85651	742.08740	-28.22763	-642.77612	-747.77563	31.81660	486.34967	669.70129	41.12854	572.19019	-47.34841	685.10504	-1010.08862	
911	9.100	-830.99353	-33.74973	-649.98663	741.84796	-29.23620	-643.07666	-747.95715	32.58314	486.06711	669.60590	41.94530	571.77692	-47.83480	683.33539	-1011.39362	
912	9.110	-831.19879	-34.65144	-650.20898	741.59210	-30.52717	-643.25812	-748.07043	33.37308	485.81067	669.48254	43.00182	571.46625	-47.76704	681.60297	-1012.71289	
913	9.120	-831.18201	-35.92422	-650.31061	741.63318	-31.46653	-643.55115	-748.22797	33.98330	485.45132	669.39734	43.63337	571.17535	-47.79899	679.87415	-1014.09216	
914	9.130	-831.25311	-36.96390	-650.53857	741.67664	-32.61222	-643.44287	-748.36066	34.69520	485.17862	668.70026	43.90383	570.93060	-48.16894	678.31714	-1015.52832	
915	9.140	-831.32336	-37.75523	-650.62665	741.60895	-33.44577	-643.76691	-748.29333	35.31421	484.79446	668.86823	44.73850	570.62592	-47.74658	676.86115	-1016.67755	
916	9.150	-831.20160	-38.92714	-650.77765	741.68341	-34.59227	-644.02936	-748.10266	35.96764	484.57562	668.99536	45.55996	570.24329	-47.91850	675.14032	-1017.94843	
917	9.160	-831.09576	-39.92471	-651.20911	741.58441	-35.52954	-643.98358	-748.02350	36.58076	484.49268	668.88312	46.27916	569.87909	-47.94458	673.66083	-1019.39728	
918	9.170	-831.22601	-40.89509	-651.16095	741.60907	-36.46693	-644.24945	-748.25592	37.37159	484.13092	669.00897	46.84649	569.34216	-47.88272	672.33527	-1020.33429	
919	9.180	-830.81104	-42.16469	-651.31903	741.73132	-37.33490	-644.49005	-748.19843	37.91976	483.96732	669.22217	47.47870	568.96179	-47.73475	670.81219	-1021.55658	
920	9.190	-830.05261	-43.14167	-651.80969	742.00958	-38.14080	-644.51898	-747.97241	38.49828	483.50131	669.30377	48.86036	569.41101	-47.75800	669.40997	-1022.79828	
921	9.200	-830.36700	-43.58047	-651.63916	742.30981	-39.12889	-644.69641	-747.60675	38.95134	483.16550	669.68134	49.55175	569.15887	-47.27973	668.30835	-1024.07483	
922	9.210	-830.09418	-44.60295	-651.68231	742.58789	-40.03093	-644.98438	-747.18481	39.50761	483.04694	669.94714	50.28367	568.94904	-47.01160	666.61969	-1025.20020	
923	9.220	-830.03320	-45.25034	-651.93536	742.90533	-40.65492	-645.00507	-746.88666	40.15685	482.84644	670.24518	51.01205	568.71997	-46.48291	665.62213	-1026.04065	
924	9.230	-829.60187	-46.06371	-652.03851	743.12036	-41.55151	-645.22150	-746.81073	40.68159	482.54459	670.51184	51.48939	568.54565	-46.13520	664.06995	-1027.09314	
925	9.240	-829.35712	-46.75095	-652.20361	743.24200	-42.47242	-645.30920	-746.39374	41.32202	482.31808	670.84778	52.20531	568.15454	-45.86099	662.98260	-1028.10730	
926	9.250	-828.89032	-47.61354	-652.40918	743.63757	-43.20382	-645.35010	-745.86346	41.74495	482.17841	671.33704	52.81651	567.95801	-45.54085	661.83057	-1029.02551	
927	9.260	-828.33337	-48.53985	-652.45575	744.04504	-43.71576	-645.47424	-745.69250	42.09189	481.94507	671.87164	53.28183	567.77258	-45.34216	660.60400	-1030.19946	
928	9.270	-827.95258	-49.37403	-652.41370	744.45099	-44.21981	-645.66364	-745.10602	42.56935	481.83954	672.43188	53.91363	567.52533	-44.95771	659.79303	-1031.02271	
929	9.280	-827.74628	-49.72437	-652.53455	745.34119	-45.17564	-645.63446	-744.56793	42.93356	481.83810	672.68536	54.50728	567.42346	-44.28350	658.52533	-1031.89124	
930	9.290	-827.19733	-50.33889	-652.73645	745.59680	-45.76620	-645.87616	-744.31342	43.31873	481.55908	673.05011	54.97346	567.30927	-43.82971	657.75677	-1032.75684	
931	9.300	-826.50671	-51.18482	-652.81415	745.96082	-46.21667	-645.95972	-743.91638	43.72951	481.47372	673.57678	55.51006	567.14185	-43.23462	656.69366	-1033.66907	
932	9.310	-826.24725	-51.34950	-652.92041	746.46521	-46.71226	-646.08191	-743.31500	44.24322	481.48102	674.02795	55.82573	566.95416	-42.92052	655.80975	-1034.24695	
933	9.320	-825.94348	-51.66259	-652.95612	746.75726	-47.22774	-646.23187	-742.89349	44.59524	481.03241	674.36353	56.11802	566.82037	-42.22680	655.13818	-1035.09863	
934	9.330	-825.25391	-52.23727	-653.00800	747.28436	-47.77521	-646.36725	-742.46265	44.86754	480.64755	674.86560	56.46369	566.70679	-42.00624	654.32275	-1035.79004	
935	9.340	-824.81403	-52.77398	-652.95886	747.58405	-48.15453	-646.29132	-741.88074	45.12257	480.46680	675.49402	56.92385	566.51031	-41.38158	653.69269	-1036.51147	
936	9.350	-823.85968	-53.51809	-653.24731	748.49622	-48.64874	-646.35736	-741.33582	45.24719	480.41370	675.27057	57.23790	566.68555	-40.61307	652.97284	-1037.11230	
